<svg xmlns="http://www.w3.org/2000/svg" version="1.1" xmlns:xlink="http://www.w3.org/1999/xlink" xmlns:svgjs="http://svgjs.dev/svgjs" width="1500" height="1500" viewBox="0 0 1500 1500"><rect width="1500" height="1500" fill="#ffffff"></rect><g transform="matrix(0.6666666666666666,0,0,0.6666666666666666,249.39393939393938,635.0293936190408)"><svg viewBox="0 0 396 91" data-background-color="#ffffff" preserveAspectRatio="xMidYMid meet" height="344" width="1500" xmlns="http://www.w3.org/2000/svg" xmlns:xlink="http://www.w3.org/1999/xlink"><g id="tight-bounds" transform="matrix(1,0,0,1,0.2400000000000091,0.12060398546788065)"><svg viewBox="0 0 395.52 90.75879202906427" height="90.75879202906427" width="395.52"><g><svg viewBox="0 0 527.0386980449573 120.93799450629825" height="90.75879202906427" width="395.52"><g transform="matrix(1,0,0,1,0,16.714295912230803)"><svg viewBox="0 0 395.52 87.50940268183665" height="87.50940268183665" width="395.52"><g id="textblocktransform"><svg viewBox="0 0 395.52 87.50940268183665" height="87.50940268183665" width="395.52" id="textblock"><g><svg viewBox="0 0 395.52 87.50940268183665" height="87.50940268183665" width="395.52"><g transform="matrix(1,0,0,1,0,0)"><svg width="395.52" viewBox="2.1499999999999995 -40.8 246.09 54.449999999999996" height="87.50940268183665" data-palette-color="#222222"><path d="M2.6-39.95L2.6-39.95Q4.65-39.95 9.13-40.15 13.6-40.35 17.25-40.35L17.25-40.35Q24.85-40.35 28.1-37.33 31.35-34.3 31.35-28.9L31.35-28.9Q31.35-25.65 29.1-23.05 26.85-20.45 23.2-19.15L23.2-19.15Q25.35-15.5 27.23-12.3 29.1-9.1 29.95-7.55 30.8-6 31.5-4.78 32.2-3.55 32.52-3.1 32.85-2.65 33.15-2.35L33.15-2.35 36.75-1.85Q36.95-1.1 36.75 0L36.75 0 28.25 0 20.7-13.7Q19.2-16.55 17.85-18.1L17.85-18.1 17.15-18.1Q14.6-18.1 12-18.4L12-18.4 12-2.2 16.55-1.7Q16.75-0.95 16.55 0.15L16.55 0.15Q13.4 0 9.45 0L9.45 0Q6.5 0 2.3 0.1L2.3 0.1Q2-0.8 2.3-1.7L2.3-1.7 6.45-2.3Q6.65-4.2 6.65-8.15L6.65-8.15 6.65-37.6 2.6-38.1Q2.4-38.85 2.6-39.95ZM12-31.65L12-31.65 12-20.45Q13.55-20.25 16.5-20.25L16.5-20.25Q19.05-20.25 20.88-21.08 22.7-21.9 23.6-23.28 24.5-24.65 24.9-26.1 25.3-27.55 25.3-29.15L25.3-29.15Q25.3-33.45 23.15-35.85 21-38.25 16-38.25L16-38.25Q14.15-38.25 12.3-37.9L12.3-37.9Q12-35.05 12-31.65ZM62.9-33.05L54.3-22.65 65.85-7.35Q68-4.3 70.05-2.25L70.05-2.25 73.95-1.85Q74.15-1 74 0L74 0Q66.5-0.15 64.7-0.15L64.7-0.15Q61-0.15 58.75 0.05L58.75 0.05Q58.45-0.8 58.7-1.75L58.7-1.75 62.8-2.45Q62.35-3.4 59.25-7.75L59.25-7.75 50.85-19.3 48-19.3 48-2.2 52.05-1.7Q52.25-0.95 52.05 0.15L52.05 0.15Q48.9 0 45.2 0L45.2 0Q42.5 0 38.3 0.1L38.3 0.1Q38-0.8 38.3-1.7L38.3-1.7 42.45-2.3Q42.65-4.2 42.65-8.15L42.65-8.15 42.65-37.6 38.6-38.1Q38.4-38.85 38.6-39.95L38.6-39.95Q41.35-39.75 45.45-39.75L45.45-39.75Q49.1-39.75 52.35-39.9L52.35-39.9Q52.65-39 52.35-38.1L52.35-38.1 48.2-37.5Q48-35.6 48-31.65L48-31.65 48-21.85 50.65-21.85 63.3-37.6 59.25-38.1Q59.05-38.85 59.25-39.95L59.25-39.95Q62-39.75 65-39.75L65-39.75Q67.6-39.75 70.8-39.9L70.8-39.9Q71.1-39 70.8-38.1L70.8-38.1 67.45-37.5Q65.15-35.7 62.9-33.05L62.9-33.05ZM113.5-8.15L113.5-8.15 113.5-36.9 98.39 1.5 97.09 1.5 82.55-35.65 82.55-8.15Q82.55-4.2 82.75-2.3L82.75-2.3 87.39-1.7Q87.69-0.8 87.39 0.1L87.39 0.1Q83.09 0 81.3 0L81.3 0Q78.3 0 75.25 0.15L75.25 0.15Q75.05-0.95 75.25-1.7L75.25-1.7 79.8-2.2 79.8-31.65Q79.8-35.6 79.59-37.5L79.59-37.5 75.44-38.1Q75.14-38.95 75.44-39.8L75.44-39.8 86.44-39.8 99-6.9 111.84-39.8Q113-39.75 115.34-39.75L115.34-39.75Q115.84-39.75 123.19-39.9L123.19-39.9Q123.5-39 123.19-38.1L123.19-38.1 119.05-37.5Q118.84-35.6 118.84-31.65L118.84-31.65 118.84-2.2 122.9-1.7Q123.09-0.95 122.9 0.15L122.9 0.15Q119.75 0 116.05 0L116.05 0Q113.34 0 109.15 0.1L109.15 0.1Q108.84-1.15 109.15-1.7L109.15-1.7 113.3-2.3Q113.5-4.2 113.5-8.15ZM132.14-11.55L133.74-3.45Q136.64-1.45 141.89-1.45L141.89-1.45Q145.44-1.45 147.22-3.5 148.99-5.55 148.99-8.4L148.99-8.4Q148.99-9.9 148.74-10.93 148.49-11.95 147.67-13.25 146.84-14.55 145.04-15.85 143.24-17.15 140.34-18.6L140.34-18.6Q136.94-20.3 134.84-21.8 132.74-23.3 131.69-24.9 130.64-26.5 130.29-27.95 129.94-29.4 129.94-31.55L129.94-31.55Q129.94-35.95 133.47-38.38 136.99-40.8 141.79-40.8L141.79-40.8Q147.74-40.8 153.29-37.8L153.29-37.8 153.29-28.2Q151.59-27.9 150.44-28.2L150.44-28.2 148.84-36.85Q145.64-38.6 141.69-38.6L141.69-38.6Q139.04-38.6 137.22-37.02 135.39-35.45 135.39-32.6L135.39-32.6Q135.39-31 135.59-30.1 135.79-29.2 136.59-27.98 137.39-26.75 139.24-25.53 141.09-24.3 144.19-22.8L144.19-22.8Q154.89-17.6 154.89-10.4L154.89-10.4Q154.89-5.3 150.99-2.15 147.09 1 140.79 1L140.79 1Q134.54 1 129.29-1.95L129.29-1.95 129.29-11.55Q130.99-11.85 132.14-11.55L132.14-11.55ZM163.34-8.7L163.34-32.45Q163.34-35.75 163.19-37.35L163.19-37.35 159.24-37.85Q159.04-38.6 159.24-39.75L159.24-39.75Q162.59-40 167.79-40.8L167.79-40.8Q168.24-40.3 168.29-39.8L168.29-39.8Q168.04-38.5 168.04-31.7L168.04-31.7 168.04-22.25Q171.74-27.35 176.94-27.35L176.94-27.35Q180.04-27.35 182.24-25.8 184.44-24.25 184.44-20.5L184.44-20.5 184.44-2.55 188.49-1.8Q188.69-1 188.49 0.2L188.49 0.2Q185.34 0.05 182.09 0.05L182.09 0.05Q179.79 0.05 175.59 0.15L175.59 0.15Q175.29-0.8 175.59-1.8L175.59-1.8 179.54-2.35Q179.74-5.1 179.74-8.7L179.74-8.7 179.74-18Q179.74-21.5 178.87-23.05 177.99-24.6 175.69-24.6L175.69-24.6Q173.79-24.6 171.72-23.2 169.64-21.8 168.04-19.15L168.04-19.15 168.04-2.55 172.09-1.8Q172.29-1 172.09 0.2L172.09 0.2Q168.94 0.05 165.69 0.05L165.69 0.05Q163.39 0.05 159.19 0.15L159.19 0.15Q158.89-0.8 159.19-1.8L159.19-1.8 163.14-2.35Q163.34-5.1 163.34-8.7L163.34-8.7ZM191.44-13.3L191.44-13.3Q191.44-16.3 192.31-18.93 193.19-21.55 194.84-23.5 196.49-25.45 198.81-26.58 201.14-27.7 204.04-27.7L204.04-27.7Q206.89-27.7 209.24-26.58 211.59-25.45 213.26-23.5 214.94-21.55 215.84-18.93 216.74-16.3 216.74-13.3L216.74-13.3Q216.74-10.2 215.81-7.6 214.89-5 213.21-3.08 211.54-1.15 209.19-0.08 206.84 1 204.04 1L204.04 1Q201.09 1 198.76-0.05 196.44-1.1 194.81-3 193.19-4.9 192.31-7.53 191.44-10.15 191.44-13.3ZM198.74-22.5L198.74-22.5Q196.59-19.45 196.59-13.3L196.59-13.3Q196.59-10.25 197.16-7.95 197.74-5.65 198.74-4.13 199.74-2.6 201.09-1.85 202.44-1.1 204.04-1.1L204.04-1.1Q205.59-1.1 206.99-1.85 208.39-2.6 209.39-4.13 210.39-5.65 210.99-7.95 211.59-10.25 211.59-13.3L211.59-13.3Q211.59-16.35 210.99-18.68 210.39-21 209.36-22.53 208.34-24.05 206.96-24.83 205.59-25.6 204.04-25.6L204.04-25.6Q200.94-25.6 198.74-22.5ZM235.79-1.7L235.79-1.7Q239.09-1.7 241.01-4.9 242.94-8.1 242.94-14.55L242.94-14.55Q242.94-19.5 241.11-22.1 239.29-24.7 236.29-24.7L236.29-24.7Q231.89-24.7 228.69-20.45L228.69-20.45 228.69-4.9Q231.49-1.7 235.79-1.7ZM223.94 4.75L223.94-19.55Q223.94-22.9 223.79-24.25L223.79-24.25 219.84-24.75Q219.69-25.55 219.84-26.65L219.84-26.65Q223.34-26.9 228.44-27.7L228.44-27.7Q228.89-27.25 228.94-26.7L228.94-26.7Q228.69-24.95 228.69-23L228.69-23Q232.74-27.7 237.99-27.7L237.99-27.7Q242.39-27.7 245.31-24.05 248.24-20.4 248.24-14.4L248.24-14.4Q248.24-7.45 244.41-3.23 240.59 1 235.39 1L235.39 1Q231.74 1 228.69-1.35L228.69-1.35 228.69 10.9 233.74 11.65Q233.94 12.45 233.74 13.65L233.74 13.65Q230.59 13.5 226.79 13.5L226.79 13.5Q223.99 13.5 219.79 13.6L219.79 13.6Q219.49 12.6 219.79 11.65L219.79 11.65 223.74 11.1Q223.94 8.35 223.94 4.75L223.94 4.75Z" opacity="1" transform="matrix(1,0,0,1,0,0)" fill="#000000" class="wordmark-text-0" data-fill-palette-color="primary" id="text-0"></path></svg></g></svg></g></svg></g></svg></g><g transform="matrix(1,0,0,1,416.17886974751724,0)"><svg viewBox="0 0 110.85982829744006 120.93799450629825" height="120.93799450629825" width="110.85982829744006"><g><svg xmlns="http://www.w3.org/2000/svg" xmlns:xlink="http://www.w3.org/1999/xlink" version="1.1" x="0" y="0" viewBox="4 0 88 96" enable-background="new 0 0 96 96" xml:space="preserve" height="120.93799450629825" width="110.85982829744006" class="icon-icon-0" data-fill-palette-color="accent" id="icon-0"><path d="M85.884 1.328C85.6 0.532 84.852 0 84 0H11.876c-0.848 0-1.604 0.536-1.888 1.336L4 18.316V32c0 3.252 1.832 6 4 6 3.308 0 6-2.692 6-6 0-1.1 0.896-2 2-2s2 0.9 2 2c0 3.308 2.692 6 6 6s6-2.692 6-6c0-1.1 0.896-2 2-2s2 0.9 2 2c0 3.308 2.692 6 6 6s6-2.692 6-6c0-1.1 0.896-2 2-2 1.104 0 2 0.9 2 2 0 3.308 2.691 6 6 6s6-2.692 6-6c0-1.1 0.9-2 2-2s2 0.9 2 2c0 3.308 2.691 6 6 6s6-2.692 6-6c0-1.1 0.9-2 2-2s2 0.9 2 2c0 2.764 1.309 6 5 6s5-3.236 5-6V18.456L85.884 1.328z" fill="#000000" data-fill-palette-color="accent"></path><path d="M72 41.756c-3.264 0-6.172-1.452-8-3.888-1.828 2.428-4.736 4.072-8 4.072s-6.172-1.544-8-3.976c-1.828 2.432-4.732 4.02-8 4.02s-6.172-1.572-8-4c-1.828 2.428-4.732 4.008-8 4.008-1.428 0-2.768-0.344-4-0.884V76h56V40.78C74.764 41.376 73.428 41.756 72 41.756z" fill="#000000" data-fill-palette-color="accent"></path><path d="M80 78c0 1.1-0.9 2-2 2H18c-1.104 0-2-0.9-2-2V37.992C14.172 40.42 11.268 42 8 42v52c0 1.1 0.896 2 2 2h76c1.1 0 2-0.9 2-2 0 0 0-49.064 0-52.948-2.977 0-6.336-0.888-8-3.036V78z" fill="#000000" data-fill-palette-color="accent"></path></svg></g></svg></g></svg></g><defs></defs></svg><rect width="395.52" height="90.75879202906427" fill="none" stroke="none" visibility="hidden"></rect></g></svg></g></svg>