<svg xmlns="http://www.w3.org/2000/svg" version="1.1" xmlns:xlink="http://www.w3.org/1999/xlink" xmlns:svgjs="http://svgjs.dev/svgjs" width="1500" height="386" viewBox="0 0 1500 386"><g transform="matrix(1,0,0,1,-0.9090909090909918,2.605088434387909)"><svg viewBox="0 0 396 102" data-background-color="#ffffff" preserveAspectRatio="xMidYMid meet" height="386" width="1500" xmlns="http://www.w3.org/2000/svg" xmlns:xlink="http://www.w3.org/1999/xlink"><g id="tight-bounds" transform="matrix(1,0,0,1,0.2400000000000091,-0.16688779828896827)"><svg viewBox="0 0 395.52 102.33638949109438" height="102.33638949109438" width="395.52"><g><svg viewBox="0 0 550.3848216039715 142.40593515789476" height="102.33638949109438" width="395.52"><g transform="matrix(1,0,0,1,0,19.681283368421063)"><svg viewBox="0 0 395.52 103.04336842105263" height="103.04336842105263" width="395.52"><g id="textblocktransform"><svg viewBox="0 0 395.52 103.04336842105263" height="103.04336842105263" width="395.52" id="textblock"><g><svg viewBox="0 0 395.52 103.04336842105263" height="103.04336842105263" width="395.52"><g transform="matrix(1,0,0,1,0,0)"><svg width="395.52" viewBox="2.1499999999999995 -40.8 208.98999999999998 54.449999999999996" height="103.04336842105263" data-palette-color="#222222"><path d="M2.6-39.95L2.6-39.95Q4.65-39.95 9.13-40.15 13.6-40.35 17.25-40.35L17.25-40.35Q24.85-40.35 28.1-37.33 31.35-34.3 31.35-28.9L31.35-28.9Q31.35-25.65 29.1-23.05 26.85-20.45 23.2-19.15L23.2-19.15Q25.35-15.5 27.23-12.3 29.1-9.1 29.95-7.55 30.8-6 31.5-4.78 32.2-3.55 32.52-3.1 32.85-2.65 33.15-2.35L33.15-2.35 36.75-1.85Q36.95-1.1 36.75 0L36.75 0 28.25 0 20.7-13.7Q19.2-16.55 17.85-18.1L17.85-18.1 17.15-18.1Q14.6-18.1 12-18.4L12-18.4 12-2.2 16.55-1.7Q16.75-0.95 16.55 0.15L16.55 0.15Q13.4 0 9.45 0L9.45 0Q6.5 0 2.3 0.1L2.3 0.1Q2-0.8 2.3-1.7L2.3-1.7 6.45-2.3Q6.65-4.2 6.65-8.15L6.65-8.15 6.65-37.6 2.6-38.1Q2.4-38.85 2.6-39.95ZM12-31.65L12-31.65 12-20.45Q13.55-20.25 16.5-20.25L16.5-20.25Q19.05-20.25 20.88-21.08 22.7-21.9 23.6-23.28 24.5-24.65 24.9-26.1 25.3-27.55 25.3-29.15L25.3-29.15Q25.3-33.45 23.15-35.85 21-38.25 16-38.25L16-38.25Q14.15-38.25 12.3-37.9L12.3-37.9Q12-35.05 12-31.65ZM76.4-8.15L76.4-8.15 76.4-36.9 61.3 1.5 60 1.5 45.45-35.65 45.45-8.15Q45.45-4.2 45.65-2.3L45.65-2.3 50.3-1.7Q50.6-0.8 50.3 0.1L50.3 0.1Q46 0 44.2 0L44.2 0Q41.2 0 38.15 0.15L38.15 0.15Q37.95-0.95 38.15-1.7L38.15-1.7 42.7-2.2 42.7-31.65Q42.7-35.6 42.5-37.5L42.5-37.5 38.35-38.1Q38.05-38.95 38.35-39.8L38.35-39.8 49.35-39.8 61.9-6.9 74.75-39.8Q75.9-39.75 78.25-39.75L78.25-39.75Q78.75-39.75 86.1-39.9L86.1-39.9Q86.4-39 86.1-38.1L86.1-38.1 81.95-37.5Q81.75-35.6 81.75-31.65L81.75-31.65 81.75-2.2 85.8-1.7Q86-0.95 85.8 0.15L85.8 0.15Q82.65 0 78.95 0L78.95 0Q76.25 0 72.05 0.1L72.05 0.1Q71.75-1.15 72.05-1.7L72.05-1.7 76.2-2.3Q76.4-4.2 76.4-8.15ZM95.05-11.55L96.65-3.45Q99.55-1.45 104.8-1.45L104.8-1.45Q108.34-1.45 110.12-3.5 111.9-5.55 111.9-8.4L111.9-8.4Q111.9-9.9 111.65-10.93 111.4-11.95 110.57-13.25 109.75-14.55 107.95-15.85 106.15-17.15 103.25-18.6L103.25-18.6Q99.84-20.3 97.75-21.8 95.65-23.3 94.59-24.9 93.55-26.5 93.2-27.95 92.84-29.4 92.84-31.55L92.84-31.55Q92.84-35.95 96.37-38.38 99.9-40.8 104.7-40.8L104.7-40.8Q110.65-40.8 116.2-37.8L116.2-37.8 116.2-28.2Q114.5-27.9 113.34-28.2L113.34-28.2 111.75-36.85Q108.55-38.6 104.59-38.6L104.59-38.6Q101.95-38.6 100.12-37.02 98.3-35.45 98.3-32.6L98.3-32.6Q98.3-31 98.5-30.1 98.7-29.2 99.5-27.98 100.3-26.75 102.15-25.53 104-24.3 107.09-22.8L107.09-22.8Q117.8-17.6 117.8-10.4L117.8-10.4Q117.8-5.3 113.9-2.15 110 1 103.7 1L103.7 1Q97.45 1 92.2-1.95L92.2-1.95 92.2-11.55Q93.9-11.85 95.05-11.55L95.05-11.55ZM126.24-8.7L126.24-32.45Q126.24-35.75 126.09-37.35L126.09-37.35 122.14-37.85Q121.94-38.6 122.14-39.75L122.14-39.75Q125.49-40 130.69-40.8L130.69-40.8Q131.14-40.3 131.19-39.8L131.19-39.8Q130.94-38.5 130.94-31.7L130.94-31.7 130.94-22.25Q134.64-27.35 139.84-27.35L139.84-27.35Q142.94-27.35 145.14-25.8 147.34-24.25 147.34-20.5L147.34-20.5 147.34-2.55 151.39-1.8Q151.59-1 151.39 0.2L151.39 0.2Q148.24 0.05 144.99 0.05L144.99 0.05Q142.69 0.05 138.49 0.15L138.49 0.15Q138.19-0.8 138.49-1.8L138.49-1.8 142.44-2.35Q142.64-5.1 142.64-8.7L142.64-8.7 142.64-18Q142.64-21.5 141.77-23.05 140.89-24.6 138.59-24.6L138.59-24.6Q136.69-24.6 134.62-23.2 132.54-21.8 130.94-19.15L130.94-19.15 130.94-2.55 134.99-1.8Q135.19-1 134.99 0.2L134.99 0.2Q131.84 0.05 128.59 0.05L128.59 0.05Q126.29 0.05 122.09 0.15L122.09 0.15Q121.79-0.8 122.09-1.8L122.09-1.8 126.04-2.35Q126.24-5.1 126.24-8.7L126.24-8.7ZM154.34-13.3L154.34-13.3Q154.34-16.3 155.22-18.93 156.09-21.55 157.74-23.5 159.39-25.45 161.72-26.58 164.04-27.7 166.94-27.7L166.94-27.7Q169.79-27.7 172.14-26.58 174.49-25.45 176.17-23.5 177.84-21.55 178.74-18.93 179.64-16.3 179.64-13.3L179.64-13.3Q179.64-10.2 178.72-7.6 177.79-5 176.12-3.08 174.44-1.15 172.09-0.08 169.74 1 166.94 1L166.94 1Q163.99 1 161.67-0.05 159.34-1.1 157.72-3 156.09-4.9 155.22-7.53 154.34-10.15 154.34-13.3ZM161.64-22.5L161.64-22.5Q159.49-19.45 159.49-13.3L159.49-13.3Q159.49-10.25 160.07-7.95 160.64-5.65 161.64-4.13 162.64-2.6 163.99-1.85 165.34-1.1 166.94-1.1L166.94-1.1Q168.49-1.1 169.89-1.85 171.29-2.6 172.29-4.13 173.29-5.65 173.89-7.95 174.49-10.25 174.49-13.3L174.49-13.3Q174.49-16.35 173.89-18.68 173.29-21 172.27-22.53 171.24-24.05 169.87-24.83 168.49-25.6 166.94-25.6L166.94-25.6Q163.84-25.6 161.64-22.5ZM198.69-1.7L198.69-1.7Q201.99-1.7 203.91-4.9 205.84-8.1 205.84-14.55L205.84-14.55Q205.84-19.5 204.01-22.1 202.19-24.7 199.19-24.7L199.19-24.7Q194.79-24.7 191.59-20.45L191.59-20.45 191.59-4.9Q194.39-1.7 198.69-1.7ZM186.84 4.75L186.84-19.55Q186.84-22.9 186.69-24.25L186.69-24.25 182.74-24.75Q182.59-25.55 182.74-26.65L182.74-26.65Q186.24-26.9 191.34-27.7L191.34-27.7Q191.79-27.25 191.84-26.7L191.84-26.7Q191.59-24.95 191.59-23L191.59-23Q195.64-27.7 200.89-27.7L200.89-27.7Q205.29-27.7 208.21-24.05 211.14-20.4 211.14-14.4L211.14-14.4Q211.14-7.45 207.31-3.23 203.49 1 198.29 1L198.29 1Q194.64 1 191.59-1.35L191.59-1.35 191.59 10.9 196.64 11.65Q196.84 12.45 196.64 13.65L196.64 13.65Q193.49 13.5 189.69 13.5L189.69 13.5Q186.89 13.5 182.69 13.6L182.69 13.6Q182.39 12.6 182.69 11.65L182.69 11.65 186.64 11.1Q186.84 8.35 186.84 4.75L186.84 4.75Z" opacity="1" transform="matrix(1,0,0,1,0,0)" fill="#222222" class="wordmark-text-0" data-fill-palette-color="primary" id="text-0"></path></svg></g></svg></g></svg></g></svg></g><g transform="matrix(1,0,0,1,419.8460662433684,0)"><svg viewBox="0 0 130.53875536060318 142.40593515789476" height="142.40593515789476" width="130.53875536060318"><g><svg xmlns="http://www.w3.org/2000/svg" xml:space="preserve" viewBox="4 -0.000013630257384019798 88 96.00001363025738" id="icon-0" width="130.53875536060318" height="142.40593515789476" x="0" y="0" class="icon-icon-0" data-fill-palette-color="accent"><path d="M85.884 1.328A1.99 1.99 0 0 0 84 0H11.876c-0.848 0-1.604 0.536-1.888 1.336L4 18.316V32c0 3.252 1.832 6 4 6 3.308 0 6-2.692 6-6 0-1.1 0.896-2 2-2s2 0.9 2 2c0 3.308 2.692 6 6 6s6-2.692 6-6c0-1.1 0.896-2 2-2s2 0.9 2 2c0 3.308 2.692 6 6 6s6-2.692 6-6c0-1.1 0.896-2 2-2s2 0.9 2 2c0 3.308 2.691 6 6 6s6-2.692 6-6c0-1.1 0.9-2 2-2s2 0.9 2 2c0 3.308 2.691 6 6 6s6-2.692 6-6c0-1.1 0.9-2 2-2s2 0.9 2 2c0 2.764 1.309 6 5 6s5-3.236 5-6V18.456z" fill="#222222" data-fill-palette-color="accent"></path><path d="M72 41.756c-3.264 0-6.172-1.452-8-3.888-1.828 2.428-4.736 4.072-8 4.072s-6.172-1.544-8-3.976c-1.828 2.432-4.732 4.02-8 4.02s-6.172-1.572-8-4c-1.828 2.428-4.732 4.008-8 4.008-1.428 0-2.768-0.344-4-0.884V76h56V40.78c-1.236 0.596-2.572 0.976-4 0.976" fill="#222222" data-fill-palette-color="accent"></path><path d="M80 78c0 1.1-0.9 2-2 2H18c-1.104 0-2-0.9-2-2V37.992C14.172 40.42 11.268 42 8 42v52c0 1.1 0.896 2 2 2h76c1.1 0 2-0.9 2-2V41.052c-2.977 0-6.336-0.888-8-3.036z" fill="#222222" data-fill-palette-color="accent"></path></svg></g></svg></g></svg></g><defs></defs></svg><rect width="395.52" height="102.33638949109438" fill="none" stroke="none" visibility="hidden"></rect></g></svg></g></svg>